<mxfile host="app.diagrams.net" agent="Mozilla/5.0 (Macintosh; Intel Mac OS X 10_15_7) AppleWebKit/537.36 (KHTML, like Gecko) Chrome/129.0.0.0 Safari/537.36" version="24.8.3">
  <diagram name="PÃ¡gina-1" id="xaikcvmHdTYjsrPqokgG">
    <mxGraphModel dx="2293" dy="977" grid="1" gridSize="10" guides="1" tooltips="1" connect="1" arrows="1" fold="1" page="1" pageScale="1" pageWidth="827" pageHeight="1169" math="0" shadow="0">
      <root>
        <mxCell id="0" />
        <mxCell id="1" parent="0" />
        <mxCell id="mL6avl_fdKSzE1yvbgfv-36" value="" style="edgeStyle=orthogonalEdgeStyle;rounded=0;orthogonalLoop=1;jettySize=auto;html=1;" edge="1" parent="1" source="mL6avl_fdKSzE1yvbgfv-2" target="mL6avl_fdKSzE1yvbgfv-4">
          <mxGeometry relative="1" as="geometry" />
        </mxCell>
        <mxCell id="mL6avl_fdKSzE1yvbgfv-2" value="Start EDA" style="ellipse;whiteSpace=wrap;html=1;fillColor=#f8cecc;strokeColor=#b85450;" vertex="1" parent="1">
          <mxGeometry x="354" y="10" width="120" height="80" as="geometry" />
        </mxCell>
        <mxCell id="mL6avl_fdKSzE1yvbgfv-37" value="" style="edgeStyle=orthogonalEdgeStyle;rounded=0;orthogonalLoop=1;jettySize=auto;html=1;" edge="1" parent="1" source="mL6avl_fdKSzE1yvbgfv-4" target="mL6avl_fdKSzE1yvbgfv-15">
          <mxGeometry relative="1" as="geometry" />
        </mxCell>
        <mxCell id="mL6avl_fdKSzE1yvbgfv-4" value="Input Data" style="shape=parallelogram;perimeter=parallelogramPerimeter;whiteSpace=wrap;html=1;fixedSize=1;fillColor=#1ba1e2;strokeColor=#006EAF;fontColor=#ffffff;" vertex="1" parent="1">
          <mxGeometry x="354" y="120" width="120" height="60" as="geometry" />
        </mxCell>
        <mxCell id="mL6avl_fdKSzE1yvbgfv-39" style="edgeStyle=orthogonalEdgeStyle;rounded=0;orthogonalLoop=1;jettySize=auto;html=1;entryX=0.5;entryY=0;entryDx=0;entryDy=0;" edge="1" parent="1" source="mL6avl_fdKSzE1yvbgfv-5" target="mL6avl_fdKSzE1yvbgfv-13">
          <mxGeometry relative="1" as="geometry" />
        </mxCell>
        <mxCell id="mL6avl_fdKSzE1yvbgfv-40" style="edgeStyle=orthogonalEdgeStyle;rounded=0;orthogonalLoop=1;jettySize=auto;html=1;" edge="1" parent="1" source="mL6avl_fdKSzE1yvbgfv-5" target="mL6avl_fdKSzE1yvbgfv-14">
          <mxGeometry relative="1" as="geometry" />
        </mxCell>
        <mxCell id="mL6avl_fdKSzE1yvbgfv-41" style="edgeStyle=orthogonalEdgeStyle;rounded=0;orthogonalLoop=1;jettySize=auto;html=1;entryX=0.5;entryY=0;entryDx=0;entryDy=0;" edge="1" parent="1" source="mL6avl_fdKSzE1yvbgfv-5" target="mL6avl_fdKSzE1yvbgfv-26">
          <mxGeometry relative="1" as="geometry" />
        </mxCell>
        <mxCell id="mL6avl_fdKSzE1yvbgfv-71" style="edgeStyle=orthogonalEdgeStyle;rounded=0;orthogonalLoop=1;jettySize=auto;html=1;" edge="1" parent="1" source="mL6avl_fdKSzE1yvbgfv-5" target="mL6avl_fdKSzE1yvbgfv-50">
          <mxGeometry relative="1" as="geometry">
            <mxPoint x="-370" y="420" as="targetPoint" />
          </mxGeometry>
        </mxCell>
        <mxCell id="mL6avl_fdKSzE1yvbgfv-72" style="edgeStyle=orthogonalEdgeStyle;rounded=0;orthogonalLoop=1;jettySize=auto;html=1;entryX=0.5;entryY=0;entryDx=0;entryDy=0;" edge="1" parent="1" source="mL6avl_fdKSzE1yvbgfv-5" target="mL6avl_fdKSzE1yvbgfv-42">
          <mxGeometry relative="1" as="geometry" />
        </mxCell>
        <mxCell id="mL6avl_fdKSzE1yvbgfv-73" style="edgeStyle=orthogonalEdgeStyle;rounded=0;orthogonalLoop=1;jettySize=auto;html=1;" edge="1" parent="1" source="mL6avl_fdKSzE1yvbgfv-5" target="mL6avl_fdKSzE1yvbgfv-45">
          <mxGeometry relative="1" as="geometry">
            <mxPoint x="1080" y="430" as="targetPoint" />
          </mxGeometry>
        </mxCell>
        <mxCell id="mL6avl_fdKSzE1yvbgfv-74" style="edgeStyle=orthogonalEdgeStyle;rounded=0;orthogonalLoop=1;jettySize=auto;html=1;" edge="1" parent="1" source="mL6avl_fdKSzE1yvbgfv-5" target="mL6avl_fdKSzE1yvbgfv-59">
          <mxGeometry relative="1" as="geometry">
            <mxPoint x="980" y="420" as="targetPoint" />
          </mxGeometry>
        </mxCell>
        <mxCell id="mL6avl_fdKSzE1yvbgfv-5" value="Identify numeric and categorical features" style="rounded=0;whiteSpace=wrap;html=1;fillColor=#e1d5e7;strokeColor=#9673a6;" vertex="1" parent="1">
          <mxGeometry x="354" y="370" width="120" height="60" as="geometry" />
        </mxCell>
        <mxCell id="mL6avl_fdKSzE1yvbgfv-68" style="edgeStyle=orthogonalEdgeStyle;rounded=0;orthogonalLoop=1;jettySize=auto;html=1;" edge="1" parent="1" source="mL6avl_fdKSzE1yvbgfv-8" target="mL6avl_fdKSzE1yvbgfv-10">
          <mxGeometry relative="1" as="geometry" />
        </mxCell>
        <mxCell id="mL6avl_fdKSzE1yvbgfv-8" value="Create histogram" style="rounded=0;whiteSpace=wrap;html=1;fillColor=#e1d5e7;strokeColor=#9673a6;" vertex="1" parent="1">
          <mxGeometry x="-270" y="610" width="120" height="60" as="geometry" />
        </mxCell>
        <mxCell id="mL6avl_fdKSzE1yvbgfv-69" style="edgeStyle=orthogonalEdgeStyle;rounded=0;orthogonalLoop=1;jettySize=auto;html=1;entryX=0.5;entryY=0;entryDx=0;entryDy=0;" edge="1" parent="1" source="mL6avl_fdKSzE1yvbgfv-9" target="mL6avl_fdKSzE1yvbgfv-10">
          <mxGeometry relative="1" as="geometry" />
        </mxCell>
        <mxCell id="mL6avl_fdKSzE1yvbgfv-9" value="Create KDE" style="rounded=0;whiteSpace=wrap;html=1;fillColor=#e1d5e7;strokeColor=#9673a6;" vertex="1" parent="1">
          <mxGeometry x="-70" y="610" width="120" height="60" as="geometry" />
        </mxCell>
        <mxCell id="mL6avl_fdKSzE1yvbgfv-88" style="edgeStyle=orthogonalEdgeStyle;rounded=0;orthogonalLoop=1;jettySize=auto;html=1;exitX=0.5;exitY=1;exitDx=0;exitDy=0;entryX=0.5;entryY=0;entryDx=0;entryDy=0;" edge="1" parent="1" source="mL6avl_fdKSzE1yvbgfv-10" target="mL6avl_fdKSzE1yvbgfv-78">
          <mxGeometry relative="1" as="geometry" />
        </mxCell>
        <mxCell id="mL6avl_fdKSzE1yvbgfv-10" value="Plot" style="rounded=0;whiteSpace=wrap;html=1;fillColor=#e1d5e7;strokeColor=#9673a6;" vertex="1" parent="1">
          <mxGeometry x="-170" y="710" width="120" height="40" as="geometry" />
        </mxCell>
        <mxCell id="mL6avl_fdKSzE1yvbgfv-25" value="" style="edgeStyle=orthogonalEdgeStyle;rounded=0;orthogonalLoop=1;jettySize=auto;html=1;" edge="1" parent="1" source="mL6avl_fdKSzE1yvbgfv-13" target="mL6avl_fdKSzE1yvbgfv-16">
          <mxGeometry relative="1" as="geometry" />
        </mxCell>
        <mxCell id="mL6avl_fdKSzE1yvbgfv-13" value="plot_violinplots" style="shape=hexagon;perimeter=hexagonPerimeter2;whiteSpace=wrap;html=1;fixedSize=1;fillColor=#d5e8d4;strokeColor=#82b366;" vertex="1" parent="1">
          <mxGeometry x="190" y="480" width="120" height="80" as="geometry" />
        </mxCell>
        <mxCell id="mL6avl_fdKSzE1yvbgfv-66" style="edgeStyle=orthogonalEdgeStyle;rounded=0;orthogonalLoop=1;jettySize=auto;html=1;" edge="1" parent="1" source="mL6avl_fdKSzE1yvbgfv-14" target="mL6avl_fdKSzE1yvbgfv-9">
          <mxGeometry relative="1" as="geometry" />
        </mxCell>
        <mxCell id="mL6avl_fdKSzE1yvbgfv-67" style="edgeStyle=orthogonalEdgeStyle;rounded=0;orthogonalLoop=1;jettySize=auto;html=1;entryX=0.5;entryY=0;entryDx=0;entryDy=0;" edge="1" parent="1" source="mL6avl_fdKSzE1yvbgfv-14" target="mL6avl_fdKSzE1yvbgfv-8">
          <mxGeometry relative="1" as="geometry" />
        </mxCell>
        <mxCell id="mL6avl_fdKSzE1yvbgfv-14" value="plot_numeric_histograms" style="shape=hexagon;perimeter=hexagonPerimeter2;whiteSpace=wrap;html=1;fixedSize=1;fillColor=#d5e8d4;strokeColor=#82b366;" vertex="1" parent="1">
          <mxGeometry x="-190" y="480" width="160" height="80" as="geometry" />
        </mxCell>
        <mxCell id="mL6avl_fdKSzE1yvbgfv-38" value="" style="edgeStyle=orthogonalEdgeStyle;rounded=0;orthogonalLoop=1;jettySize=auto;html=1;" edge="1" parent="1" source="mL6avl_fdKSzE1yvbgfv-15" target="mL6avl_fdKSzE1yvbgfv-5">
          <mxGeometry relative="1" as="geometry" />
        </mxCell>
        <mxCell id="mL6avl_fdKSzE1yvbgfv-15" value="__init__" style="shape=hexagon;perimeter=hexagonPerimeter2;whiteSpace=wrap;html=1;fixedSize=1;fillColor=#d5e8d4;strokeColor=#82b366;" vertex="1" parent="1">
          <mxGeometry x="354" y="230" width="120" height="80" as="geometry" />
        </mxCell>
        <mxCell id="mL6avl_fdKSzE1yvbgfv-19" value="" style="edgeStyle=orthogonalEdgeStyle;rounded=0;orthogonalLoop=1;jettySize=auto;html=1;" edge="1" parent="1" source="mL6avl_fdKSzE1yvbgfv-16" target="mL6avl_fdKSzE1yvbgfv-17">
          <mxGeometry relative="1" as="geometry" />
        </mxCell>
        <mxCell id="mL6avl_fdKSzE1yvbgfv-20" value="True" style="edgeLabel;html=1;align=center;verticalAlign=middle;resizable=0;points=[];" vertex="1" connectable="0" parent="mL6avl_fdKSzE1yvbgfv-19">
          <mxGeometry x="-0.3" relative="1" as="geometry">
            <mxPoint as="offset" />
          </mxGeometry>
        </mxCell>
        <mxCell id="mL6avl_fdKSzE1yvbgfv-22" value="" style="edgeStyle=orthogonalEdgeStyle;rounded=0;orthogonalLoop=1;jettySize=auto;html=1;" edge="1" parent="1" source="mL6avl_fdKSzE1yvbgfv-16" target="mL6avl_fdKSzE1yvbgfv-21">
          <mxGeometry relative="1" as="geometry" />
        </mxCell>
        <mxCell id="mL6avl_fdKSzE1yvbgfv-23" value="false" style="edgeLabel;html=1;align=center;verticalAlign=middle;resizable=0;points=[];" vertex="1" connectable="0" parent="mL6avl_fdKSzE1yvbgfv-22">
          <mxGeometry x="0.24" y="-2" relative="1" as="geometry">
            <mxPoint as="offset" />
          </mxGeometry>
        </mxCell>
        <mxCell id="mL6avl_fdKSzE1yvbgfv-16" value="is it numerical?" style="rhombus;whiteSpace=wrap;html=1;fillColor=#647687;strokeColor=#314354;fontColor=#ffffff;" vertex="1" parent="1">
          <mxGeometry x="210" y="590" width="80" height="100" as="geometry" />
        </mxCell>
        <mxCell id="mL6avl_fdKSzE1yvbgfv-24" value="" style="edgeStyle=orthogonalEdgeStyle;rounded=0;orthogonalLoop=1;jettySize=auto;html=1;" edge="1" parent="1" source="mL6avl_fdKSzE1yvbgfv-17" target="mL6avl_fdKSzE1yvbgfv-18">
          <mxGeometry relative="1" as="geometry" />
        </mxCell>
        <mxCell id="mL6avl_fdKSzE1yvbgfv-17" value="Create violin graphic" style="rounded=0;whiteSpace=wrap;html=1;fillColor=#e1d5e7;strokeColor=#9673a6;" vertex="1" parent="1">
          <mxGeometry x="190" y="730" width="120" height="60" as="geometry" />
        </mxCell>
        <mxCell id="mL6avl_fdKSzE1yvbgfv-87" value="" style="edgeStyle=orthogonalEdgeStyle;rounded=0;orthogonalLoop=1;jettySize=auto;html=1;" edge="1" parent="1" source="mL6avl_fdKSzE1yvbgfv-18" target="mL6avl_fdKSzE1yvbgfv-79">
          <mxGeometry relative="1" as="geometry" />
        </mxCell>
        <mxCell id="mL6avl_fdKSzE1yvbgfv-18" value="plot" style="rounded=0;whiteSpace=wrap;html=1;fillColor=#e1d5e7;strokeColor=#9673a6;" vertex="1" parent="1">
          <mxGeometry x="190" y="840" width="120" height="60" as="geometry" />
        </mxCell>
        <mxCell id="mL6avl_fdKSzE1yvbgfv-21" value="stop" style="rounded=0;whiteSpace=wrap;html=1;fillColor=#e1d5e7;strokeColor=#9673a6;" vertex="1" parent="1">
          <mxGeometry x="340" y="625" width="60" height="30" as="geometry" />
        </mxCell>
        <mxCell id="mL6avl_fdKSzE1yvbgfv-31" value="" style="edgeStyle=orthogonalEdgeStyle;rounded=0;orthogonalLoop=1;jettySize=auto;html=1;" edge="1" parent="1" source="mL6avl_fdKSzE1yvbgfv-26" target="mL6avl_fdKSzE1yvbgfv-27">
          <mxGeometry relative="1" as="geometry" />
        </mxCell>
        <mxCell id="mL6avl_fdKSzE1yvbgfv-26" value="plot_categorical" style="shape=hexagon;perimeter=hexagonPerimeter2;whiteSpace=wrap;html=1;fixedSize=1;fillColor=#d5e8d4;strokeColor=#82b366;" vertex="1" parent="1">
          <mxGeometry x="520" y="480" width="120" height="80" as="geometry" />
        </mxCell>
        <mxCell id="mL6avl_fdKSzE1yvbgfv-32" value="true" style="edgeStyle=orthogonalEdgeStyle;rounded=0;orthogonalLoop=1;jettySize=auto;html=1;" edge="1" parent="1" source="mL6avl_fdKSzE1yvbgfv-27" target="mL6avl_fdKSzE1yvbgfv-28">
          <mxGeometry relative="1" as="geometry" />
        </mxCell>
        <mxCell id="mL6avl_fdKSzE1yvbgfv-33" value="" style="edgeStyle=orthogonalEdgeStyle;rounded=0;orthogonalLoop=1;jettySize=auto;html=1;" edge="1" parent="1" source="mL6avl_fdKSzE1yvbgfv-27" target="mL6avl_fdKSzE1yvbgfv-30">
          <mxGeometry relative="1" as="geometry" />
        </mxCell>
        <mxCell id="mL6avl_fdKSzE1yvbgfv-34" value="false" style="edgeLabel;html=1;align=center;verticalAlign=middle;resizable=0;points=[];" vertex="1" connectable="0" parent="mL6avl_fdKSzE1yvbgfv-33">
          <mxGeometry x="-0.32" y="-4" relative="1" as="geometry">
            <mxPoint as="offset" />
          </mxGeometry>
        </mxCell>
        <mxCell id="mL6avl_fdKSzE1yvbgfv-27" value="is it categorical?" style="rhombus;whiteSpace=wrap;html=1;fillColor=#647687;strokeColor=#314354;fontColor=#ffffff;" vertex="1" parent="1">
          <mxGeometry x="540" y="590" width="80" height="100" as="geometry" />
        </mxCell>
        <mxCell id="mL6avl_fdKSzE1yvbgfv-35" value="" style="edgeStyle=orthogonalEdgeStyle;rounded=0;orthogonalLoop=1;jettySize=auto;html=1;" edge="1" parent="1" source="mL6avl_fdKSzE1yvbgfv-28" target="mL6avl_fdKSzE1yvbgfv-29">
          <mxGeometry relative="1" as="geometry" />
        </mxCell>
        <mxCell id="mL6avl_fdKSzE1yvbgfv-28" value="Group the data" style="rounded=0;whiteSpace=wrap;html=1;fillColor=#e1d5e7;strokeColor=#9673a6;" vertex="1" parent="1">
          <mxGeometry x="520" y="740" width="120" height="60" as="geometry" />
        </mxCell>
        <mxCell id="mL6avl_fdKSzE1yvbgfv-86" value="" style="edgeStyle=orthogonalEdgeStyle;rounded=0;orthogonalLoop=1;jettySize=auto;html=1;" edge="1" parent="1" source="mL6avl_fdKSzE1yvbgfv-29" target="mL6avl_fdKSzE1yvbgfv-80">
          <mxGeometry relative="1" as="geometry" />
        </mxCell>
        <mxCell id="mL6avl_fdKSzE1yvbgfv-29" value="Create a bar graph" style="rounded=0;whiteSpace=wrap;html=1;fillColor=#e1d5e7;strokeColor=#9673a6;" vertex="1" parent="1">
          <mxGeometry x="520" y="850" width="120" height="60" as="geometry" />
        </mxCell>
        <mxCell id="mL6avl_fdKSzE1yvbgfv-30" value="stop" style="rounded=0;whiteSpace=wrap;html=1;fillColor=#e1d5e7;strokeColor=#9673a6;" vertex="1" parent="1">
          <mxGeometry x="670" y="625" width="80" height="30" as="geometry" />
        </mxCell>
        <mxCell id="mL6avl_fdKSzE1yvbgfv-64" value="" style="edgeStyle=orthogonalEdgeStyle;rounded=0;orthogonalLoop=1;jettySize=auto;html=1;" edge="1" parent="1" source="mL6avl_fdKSzE1yvbgfv-42" target="mL6avl_fdKSzE1yvbgfv-43">
          <mxGeometry relative="1" as="geometry" />
        </mxCell>
        <mxCell id="mL6avl_fdKSzE1yvbgfv-42" value="replace_outliers_with_median" style="shape=hexagon;perimeter=hexagonPerimeter2;whiteSpace=wrap;html=1;fixedSize=1;fillColor=#d5e8d4;strokeColor=#82b366;" vertex="1" parent="1">
          <mxGeometry x="850" y="480" width="170" height="80" as="geometry" />
        </mxCell>
        <mxCell id="mL6avl_fdKSzE1yvbgfv-65" value="" style="edgeStyle=orthogonalEdgeStyle;rounded=0;orthogonalLoop=1;jettySize=auto;html=1;" edge="1" parent="1" source="mL6avl_fdKSzE1yvbgfv-43" target="mL6avl_fdKSzE1yvbgfv-44">
          <mxGeometry relative="1" as="geometry" />
        </mxCell>
        <mxCell id="mL6avl_fdKSzE1yvbgfv-43" value="input percentile and data series" style="shape=parallelogram;perimeter=parallelogramPerimeter;whiteSpace=wrap;html=1;fixedSize=1;fillColor=#1ba1e2;strokeColor=#006EAF;fontColor=#ffffff;" vertex="1" parent="1">
          <mxGeometry x="852.5" y="590" width="165" height="65" as="geometry" />
        </mxCell>
        <mxCell id="mL6avl_fdKSzE1yvbgfv-85" style="edgeStyle=orthogonalEdgeStyle;rounded=0;orthogonalLoop=1;jettySize=auto;html=1;" edge="1" parent="1" source="mL6avl_fdKSzE1yvbgfv-44" target="mL6avl_fdKSzE1yvbgfv-81">
          <mxGeometry relative="1" as="geometry" />
        </mxCell>
        <mxCell id="mL6avl_fdKSzE1yvbgfv-44" value="replace values" style="rounded=0;whiteSpace=wrap;html=1;fillColor=#e1d5e7;strokeColor=#9673a6;" vertex="1" parent="1">
          <mxGeometry x="875" y="700" width="120" height="60" as="geometry" />
        </mxCell>
        <mxCell id="mL6avl_fdKSzE1yvbgfv-63" value="" style="edgeStyle=orthogonalEdgeStyle;rounded=0;orthogonalLoop=1;jettySize=auto;html=1;" edge="1" parent="1" source="mL6avl_fdKSzE1yvbgfv-45" target="mL6avl_fdKSzE1yvbgfv-46">
          <mxGeometry relative="1" as="geometry" />
        </mxCell>
        <mxCell id="mL6avl_fdKSzE1yvbgfv-45" value="replace_outliers" style="shape=hexagon;perimeter=hexagonPerimeter2;whiteSpace=wrap;html=1;fixedSize=1;fillColor=#d5e8d4;strokeColor=#82b366;" vertex="1" parent="1">
          <mxGeometry x="1181" y="480" width="120" height="80" as="geometry" />
        </mxCell>
        <mxCell id="mL6avl_fdKSzE1yvbgfv-49" value="Apply" style="edgeStyle=orthogonalEdgeStyle;rounded=0;orthogonalLoop=1;jettySize=auto;html=1;" edge="1" parent="1" source="mL6avl_fdKSzE1yvbgfv-46" target="mL6avl_fdKSzE1yvbgfv-48">
          <mxGeometry relative="1" as="geometry" />
        </mxCell>
        <mxCell id="mL6avl_fdKSzE1yvbgfv-46" value="For every column" style="rhombus;whiteSpace=wrap;html=1;fillColor=#647687;strokeColor=#314354;fontColor=#ffffff;" vertex="1" parent="1">
          <mxGeometry x="1201" y="590" width="80" height="80" as="geometry" />
        </mxCell>
        <mxCell id="mL6avl_fdKSzE1yvbgfv-84" style="edgeStyle=orthogonalEdgeStyle;rounded=0;orthogonalLoop=1;jettySize=auto;html=1;entryX=0.5;entryY=0;entryDx=0;entryDy=0;" edge="1" parent="1" source="mL6avl_fdKSzE1yvbgfv-48" target="mL6avl_fdKSzE1yvbgfv-82">
          <mxGeometry relative="1" as="geometry" />
        </mxCell>
        <mxCell id="mL6avl_fdKSzE1yvbgfv-48" value="replace_outliers_with_median" style="shape=hexagon;perimeter=hexagonPerimeter2;whiteSpace=wrap;html=1;fixedSize=1;fillColor=#d5e8d4;strokeColor=#82b366;" vertex="1" parent="1">
          <mxGeometry x="1156" y="720" width="170" height="80" as="geometry" />
        </mxCell>
        <mxCell id="mL6avl_fdKSzE1yvbgfv-70" value="" style="edgeStyle=orthogonalEdgeStyle;rounded=0;orthogonalLoop=1;jettySize=auto;html=1;" edge="1" parent="1" source="mL6avl_fdKSzE1yvbgfv-50" target="mL6avl_fdKSzE1yvbgfv-51">
          <mxGeometry relative="1" as="geometry" />
        </mxCell>
        <mxCell id="mL6avl_fdKSzE1yvbgfv-50" value="handle_missing_values" style="shape=hexagon;perimeter=hexagonPerimeter2;whiteSpace=wrap;html=1;fixedSize=1;fillColor=#d5e8d4;strokeColor=#82b366;" vertex="1" parent="1">
          <mxGeometry x="-685" y="480" width="140" height="80" as="geometry" />
        </mxCell>
        <mxCell id="mL6avl_fdKSzE1yvbgfv-54" value="" style="edgeStyle=orthogonalEdgeStyle;rounded=0;orthogonalLoop=1;jettySize=auto;html=1;" edge="1" parent="1" source="mL6avl_fdKSzE1yvbgfv-51" target="mL6avl_fdKSzE1yvbgfv-52">
          <mxGeometry relative="1" as="geometry" />
        </mxCell>
        <mxCell id="mL6avl_fdKSzE1yvbgfv-55" value="True" style="edgeLabel;html=1;align=center;verticalAlign=middle;resizable=0;points=[];" vertex="1" connectable="0" parent="mL6avl_fdKSzE1yvbgfv-54">
          <mxGeometry x="-0.2" relative="1" as="geometry">
            <mxPoint as="offset" />
          </mxGeometry>
        </mxCell>
        <mxCell id="mL6avl_fdKSzE1yvbgfv-57" value="" style="edgeStyle=orthogonalEdgeStyle;rounded=0;orthogonalLoop=1;jettySize=auto;html=1;" edge="1" parent="1" source="mL6avl_fdKSzE1yvbgfv-51" target="mL6avl_fdKSzE1yvbgfv-56">
          <mxGeometry relative="1" as="geometry" />
        </mxCell>
        <mxCell id="mL6avl_fdKSzE1yvbgfv-58" value="False" style="edgeLabel;html=1;align=center;verticalAlign=middle;resizable=0;points=[];" vertex="1" connectable="0" parent="mL6avl_fdKSzE1yvbgfv-57">
          <mxGeometry x="-0.48" relative="1" as="geometry">
            <mxPoint as="offset" />
          </mxGeometry>
        </mxCell>
        <mxCell id="mL6avl_fdKSzE1yvbgfv-51" value="is it a numeric column?" style="rhombus;whiteSpace=wrap;html=1;fillColor=#647687;strokeColor=#314354;fontColor=#ffffff;" vertex="1" parent="1">
          <mxGeometry x="-670" y="600" width="110" height="100" as="geometry" />
        </mxCell>
        <mxCell id="mL6avl_fdKSzE1yvbgfv-89" style="edgeStyle=orthogonalEdgeStyle;rounded=0;orthogonalLoop=1;jettySize=auto;html=1;exitX=0.5;exitY=1;exitDx=0;exitDy=0;" edge="1" parent="1" source="mL6avl_fdKSzE1yvbgfv-52" target="mL6avl_fdKSzE1yvbgfv-77">
          <mxGeometry relative="1" as="geometry" />
        </mxCell>
        <mxCell id="mL6avl_fdKSzE1yvbgfv-52" value="# Get the imputer type for the column, or default to &#39;median&#39;" style="rounded=0;whiteSpace=wrap;html=1;fillColor=#e1d5e7;strokeColor=#9673a6;" vertex="1" parent="1">
          <mxGeometry x="-675" y="740" width="120" height="60" as="geometry" />
        </mxCell>
        <mxCell id="mL6avl_fdKSzE1yvbgfv-56" value="Get the imputer type for the column, or default to &#39;mode&#39;" style="rounded=0;whiteSpace=wrap;html=1;fillColor=#e1d5e7;strokeColor=#9673a6;" vertex="1" parent="1">
          <mxGeometry x="-480" y="620" width="120" height="60" as="geometry" />
        </mxCell>
        <mxCell id="mL6avl_fdKSzE1yvbgfv-61" value="" style="edgeStyle=orthogonalEdgeStyle;rounded=0;orthogonalLoop=1;jettySize=auto;html=1;" edge="1" parent="1" source="mL6avl_fdKSzE1yvbgfv-59" target="mL6avl_fdKSzE1yvbgfv-60">
          <mxGeometry relative="1" as="geometry" />
        </mxCell>
        <mxCell id="mL6avl_fdKSzE1yvbgfv-62" value="Apply" style="edgeLabel;html=1;align=center;verticalAlign=middle;resizable=0;points=[];" vertex="1" connectable="0" parent="mL6avl_fdKSzE1yvbgfv-61">
          <mxGeometry x="-0.4737" y="-1" relative="1" as="geometry">
            <mxPoint as="offset" />
          </mxGeometry>
        </mxCell>
        <mxCell id="mL6avl_fdKSzE1yvbgfv-59" value="get_data_with_handled_missing_values" style="shape=hexagon;perimeter=hexagonPerimeter2;whiteSpace=wrap;html=1;fixedSize=1;fillColor=#d5e8d4;strokeColor=#82b366;" vertex="1" parent="1">
          <mxGeometry x="1434" y="480" width="220" height="80" as="geometry" />
        </mxCell>
        <mxCell id="mL6avl_fdKSzE1yvbgfv-97" style="edgeStyle=orthogonalEdgeStyle;rounded=0;orthogonalLoop=1;jettySize=auto;html=1;exitX=0.5;exitY=1;exitDx=0;exitDy=0;" edge="1" parent="1" source="mL6avl_fdKSzE1yvbgfv-60" target="mL6avl_fdKSzE1yvbgfv-83">
          <mxGeometry relative="1" as="geometry" />
        </mxCell>
        <mxCell id="mL6avl_fdKSzE1yvbgfv-60" value="handle_missing_values" style="shape=hexagon;perimeter=hexagonPerimeter2;whiteSpace=wrap;html=1;fixedSize=1;fillColor=#d5e8d4;strokeColor=#82b366;" vertex="1" parent="1">
          <mxGeometry x="1474" y="655" width="140" height="80" as="geometry" />
        </mxCell>
        <mxCell id="mL6avl_fdKSzE1yvbgfv-91" style="edgeStyle=orthogonalEdgeStyle;rounded=0;orthogonalLoop=1;jettySize=auto;html=1;entryX=0;entryY=0.5;entryDx=0;entryDy=0;" edge="1" parent="1" source="mL6avl_fdKSzE1yvbgfv-77" target="mL6avl_fdKSzE1yvbgfv-90">
          <mxGeometry relative="1" as="geometry">
            <Array as="points">
              <mxPoint x="-615" y="1110" />
            </Array>
          </mxGeometry>
        </mxCell>
        <mxCell id="mL6avl_fdKSzE1yvbgfv-77" value="End" style="ellipse;whiteSpace=wrap;html=1;aspect=fixed;fillColor=#f8cecc;strokeColor=#b85450;" vertex="1" parent="1">
          <mxGeometry x="-655" y="950" width="80" height="80" as="geometry" />
        </mxCell>
        <mxCell id="mL6avl_fdKSzE1yvbgfv-92" style="edgeStyle=orthogonalEdgeStyle;rounded=0;orthogonalLoop=1;jettySize=auto;html=1;" edge="1" parent="1" source="mL6avl_fdKSzE1yvbgfv-78">
          <mxGeometry relative="1" as="geometry">
            <mxPoint x="350" y="1100" as="targetPoint" />
            <Array as="points">
              <mxPoint x="-110" y="1110" />
              <mxPoint x="351" y="1110" />
              <mxPoint x="351" y="1100" />
            </Array>
          </mxGeometry>
        </mxCell>
        <mxCell id="mL6avl_fdKSzE1yvbgfv-78" value="End" style="ellipse;whiteSpace=wrap;html=1;aspect=fixed;fillColor=#f8cecc;strokeColor=#b85450;" vertex="1" parent="1">
          <mxGeometry x="-150" y="950" width="80" height="80" as="geometry" />
        </mxCell>
        <mxCell id="mL6avl_fdKSzE1yvbgfv-93" style="edgeStyle=orthogonalEdgeStyle;rounded=0;orthogonalLoop=1;jettySize=auto;html=1;" edge="1" parent="1" source="mL6avl_fdKSzE1yvbgfv-79">
          <mxGeometry relative="1" as="geometry">
            <mxPoint x="350" y="1110" as="targetPoint" />
            <Array as="points">
              <mxPoint x="250" y="1110" />
            </Array>
          </mxGeometry>
        </mxCell>
        <mxCell id="mL6avl_fdKSzE1yvbgfv-79" value="End" style="ellipse;whiteSpace=wrap;html=1;aspect=fixed;fillColor=#f8cecc;strokeColor=#b85450;" vertex="1" parent="1">
          <mxGeometry x="210" y="950" width="80" height="80" as="geometry" />
        </mxCell>
        <mxCell id="mL6avl_fdKSzE1yvbgfv-94" style="edgeStyle=orthogonalEdgeStyle;rounded=0;orthogonalLoop=1;jettySize=auto;html=1;" edge="1" parent="1" source="mL6avl_fdKSzE1yvbgfv-80">
          <mxGeometry relative="1" as="geometry">
            <mxPoint x="480" y="1110" as="targetPoint" />
            <Array as="points">
              <mxPoint x="580" y="1110" />
              <mxPoint x="480" y="1110" />
            </Array>
          </mxGeometry>
        </mxCell>
        <mxCell id="mL6avl_fdKSzE1yvbgfv-80" value="End" style="ellipse;whiteSpace=wrap;html=1;aspect=fixed;fillColor=#f8cecc;strokeColor=#b85450;" vertex="1" parent="1">
          <mxGeometry x="540" y="950" width="80" height="80" as="geometry" />
        </mxCell>
        <mxCell id="mL6avl_fdKSzE1yvbgfv-95" style="edgeStyle=orthogonalEdgeStyle;rounded=0;orthogonalLoop=1;jettySize=auto;html=1;" edge="1" parent="1" source="mL6avl_fdKSzE1yvbgfv-81">
          <mxGeometry relative="1" as="geometry">
            <mxPoint x="480" y="1110" as="targetPoint" />
            <Array as="points">
              <mxPoint x="935" y="1110" />
            </Array>
          </mxGeometry>
        </mxCell>
        <mxCell id="mL6avl_fdKSzE1yvbgfv-81" value="End" style="ellipse;whiteSpace=wrap;html=1;aspect=fixed;fillColor=#f8cecc;strokeColor=#b85450;" vertex="1" parent="1">
          <mxGeometry x="895" y="950" width="80" height="80" as="geometry" />
        </mxCell>
        <mxCell id="mL6avl_fdKSzE1yvbgfv-96" style="edgeStyle=orthogonalEdgeStyle;rounded=0;orthogonalLoop=1;jettySize=auto;html=1;" edge="1" parent="1" source="mL6avl_fdKSzE1yvbgfv-82">
          <mxGeometry relative="1" as="geometry">
            <mxPoint x="480" y="1110" as="targetPoint" />
            <Array as="points">
              <mxPoint x="1241" y="1110" />
            </Array>
          </mxGeometry>
        </mxCell>
        <mxCell id="mL6avl_fdKSzE1yvbgfv-82" value="End" style="ellipse;whiteSpace=wrap;html=1;aspect=fixed;fillColor=#f8cecc;strokeColor=#b85450;" vertex="1" parent="1">
          <mxGeometry x="1201" y="950" width="80" height="80" as="geometry" />
        </mxCell>
        <mxCell id="mL6avl_fdKSzE1yvbgfv-98" style="edgeStyle=orthogonalEdgeStyle;rounded=0;orthogonalLoop=1;jettySize=auto;html=1;entryX=1;entryY=0.5;entryDx=0;entryDy=0;" edge="1" parent="1" source="mL6avl_fdKSzE1yvbgfv-83" target="mL6avl_fdKSzE1yvbgfv-90">
          <mxGeometry relative="1" as="geometry">
            <mxPoint x="710" y="1140" as="targetPoint" />
            <Array as="points">
              <mxPoint x="1544" y="1110" />
            </Array>
          </mxGeometry>
        </mxCell>
        <mxCell id="mL6avl_fdKSzE1yvbgfv-83" value="End" style="ellipse;whiteSpace=wrap;html=1;aspect=fixed;fillColor=#f8cecc;strokeColor=#b85450;" vertex="1" parent="1">
          <mxGeometry x="1504" y="950" width="80" height="80" as="geometry" />
        </mxCell>
        <mxCell id="mL6avl_fdKSzE1yvbgfv-90" value="End EDA" style="ellipse;whiteSpace=wrap;html=1;fillColor=#f8cecc;strokeColor=#b85450;" vertex="1" parent="1">
          <mxGeometry x="354" y="1070" width="120" height="80" as="geometry" />
        </mxCell>
      </root>
    </mxGraphModel>
  </diagram>
</mxfile>
